<svg width="60" height="60" viewBox="0 0 60 60" fill="none" xmlns="http://www.w3.org/2000/svg">
<rect width="60" height="60" rx="30" fill="black"/>
<path d="M37.2893 34.5156C37.2893 36.1094 36.7711 37.4818 35.7346 38.6328C34.6982 39.7839 33.3518 40.4948 31.6956 40.7656V43.5C31.6956 43.6458 31.6487 43.7656 31.5549 43.8594C31.4612 43.9531 31.3414 44 31.1956 44H29.0862C28.9508 44 28.8336 43.9505 28.7346 43.8516C28.6357 43.7526 28.5862 43.6354 28.5862 43.5V40.7656C27.8987 40.6719 27.2346 40.5104 26.594 40.2812C25.9534 40.0521 25.4247 39.8203 25.0081 39.5859C24.5914 39.3516 24.206 39.1016 23.8518 38.8359C23.4976 38.5703 23.2555 38.375 23.1252 38.25C22.995 38.125 22.9039 38.0312 22.8518 37.9688C22.6747 37.75 22.6643 37.5365 22.8206 37.3281L24.4299 35.2188C24.5028 35.1146 24.6226 35.0521 24.7893 35.0312C24.9456 35.0104 25.0706 35.0573 25.1643 35.1719L25.1956 35.2031C26.3726 36.2344 27.6383 36.8854 28.9924 37.1562C29.3778 37.2396 29.7633 37.2812 30.1487 37.2812C30.9924 37.2812 31.7346 37.0573 32.3752 36.6094C33.0159 36.1615 33.3362 35.526 33.3362 34.7031C33.3362 34.4115 33.2581 34.1354 33.1018 33.875C32.9456 33.6146 32.7711 33.3958 32.5784 33.2188C32.3857 33.0417 32.081 32.8464 31.6643 32.6328C31.2476 32.4193 30.9039 32.2526 30.6331 32.1328C30.3622 32.013 29.9456 31.8438 29.3831 31.625C28.9768 31.4583 28.6565 31.3281 28.4221 31.2344C28.1877 31.1406 27.8674 31.0026 27.4612 30.8203C27.0549 30.638 26.7294 30.4766 26.4846 30.3359C26.2398 30.1953 25.9456 30.0104 25.6018 29.7812C25.2581 29.5521 24.9794 29.3307 24.7659 29.1172C24.5523 28.9036 24.3258 28.6484 24.0862 28.3516C23.8466 28.0547 23.6617 27.7526 23.5315 27.4453C23.4013 27.138 23.2919 26.7917 23.2034 26.4062C23.1148 26.0208 23.0706 25.6146 23.0706 25.1875C23.0706 23.75 23.581 22.4896 24.6018 21.4062C25.6226 20.3229 26.9508 19.625 28.5862 19.3125V16.5C28.5862 16.3646 28.6357 16.2474 28.7346 16.1484C28.8336 16.0495 28.9508 16 29.0862 16H31.1956C31.3414 16 31.4612 16.0469 31.5549 16.1406C31.6487 16.2344 31.6956 16.3542 31.6956 16.5V19.25C32.2893 19.3125 32.8648 19.4323 33.4221 19.6094C33.9794 19.7865 34.4325 19.9609 34.7815 20.1328C35.1305 20.3047 35.4612 20.5 35.7737 20.7188C36.0862 20.9375 36.2893 21.0885 36.3831 21.1719C36.4768 21.2552 36.5549 21.3281 36.6174 21.3906C36.7945 21.5781 36.8206 21.776 36.6956 21.9844L35.4299 24.2656C35.3466 24.4219 35.2268 24.5052 35.0706 24.5156C34.9247 24.5469 34.7841 24.5104 34.6487 24.4062C34.6174 24.375 34.5419 24.3125 34.4221 24.2188C34.3023 24.125 34.0992 23.987 33.8127 23.8047C33.5263 23.6224 33.2216 23.4557 32.8987 23.3047C32.5758 23.1536 32.1877 23.0182 31.7346 22.8984C31.2815 22.7786 30.8362 22.7188 30.3987 22.7188C29.4091 22.7188 28.6018 22.9427 27.9768 23.3906C27.3518 23.8385 27.0393 24.4167 27.0393 25.125C27.0393 25.3958 27.0836 25.6458 27.1721 25.875C27.2607 26.1042 27.4143 26.3203 27.6331 26.5234C27.8518 26.7266 28.0575 26.8984 28.2502 27.0391C28.443 27.1797 28.7346 27.3411 29.1252 27.5234C29.5159 27.7057 29.831 27.8464 30.0706 27.9453C30.3101 28.0443 30.6747 28.1875 31.1643 28.375C31.7164 28.5833 32.1383 28.7474 32.4299 28.8672C32.7216 28.987 33.1174 29.1693 33.6174 29.4141C34.1174 29.6589 34.5107 29.8802 34.7971 30.0781C35.0836 30.276 35.4065 30.5365 35.7659 30.8594C36.1252 31.1823 36.4013 31.513 36.594 31.8516C36.7867 32.1901 36.9508 32.5885 37.0862 33.0469C37.2216 33.5052 37.2893 33.9948 37.2893 34.5156Z" fill="white"/>
</svg>
